<svg width="895" height="449" viewBox="0 0 895 449" fill="none" xmlns="http://www.w3.org/2000/svg">
<g clip-path="url(#clip0_157_2)">
<path d="M294.494 448.282C267.511 448.282 240.568 447.799 213.665 446.833C175.225 445.452 135.475 444.025 98.5296 423.534C72.6846 409.201 49.7948 386.205 32.3355 357.03C20.6659 337.256 12.1093 315.803 6.96618 293.426C-2.62775 252.684 -2.30097 210.235 7.91905 169.646C11.5005 155.73 16.4379 142.199 22.6602 129.246C49.6031 73.4527 98.7451 36 157.486 26.4922C157.971 26.4292 158.462 26.4188 158.949 26.4609C159.213 26.4751 159.477 26.4902 159.745 26.479L160.091 26.3691C160.977 26.0612 161.887 25.8277 162.811 25.6709C253.405 12.1841 349.176 39.4727 439.764 104.584C509.806 154.936 602.631 182.049 723.545 187.474L725.262 187.563C758.921 189.497 791.48 203.374 819.422 227.696C847.001 251.702 867.709 283.73 879.306 320.32C880.731 324.781 882.038 329.425 883.19 334.121C884.262 338.486 884.187 343.054 882.97 347.38C881.754 351.707 879.438 355.645 876.249 358.811V358.82L875.948 359.13C875.223 359.851 874.46 360.542 873.681 361.186L872.764 361.941C865.036 368.307 858.933 373.335 851.629 377.24C846.757 379.827 841.576 381.783 836.21 383.061C806.745 390.245 776.823 396.905 747.274 402.858C689.89 414.429 630.993 423.974 572.22 431.227C480.081 442.588 387.331 448.284 294.494 448.282ZM158.262 28.437C158.082 28.4353 157.901 28.4476 157.723 28.4736C99.5309 37.8926 50.8541 74.9775 24.1783 130.219C18.0174 143.043 13.1289 156.44 9.58308 170.219C-0.543807 210.448 -0.866523 252.52 8.64207 292.899C13.7349 315.063 22.2085 336.31 33.7654 355.896C51.0538 384.784 73.7095 407.55 99.2836 421.731C135.898 442.039 175.46 443.46 213.72 444.833C333.382 449.109 453.196 443.894 572.035 429.238C630.769 421.989 689.628 412.451 746.975 400.888C776.503 394.939 806.405 388.284 835.85 381.105C841.087 379.859 846.143 377.95 850.898 375.426C858.055 371.6 864.1 366.619 871.753 360.314L872.67 359.56C873.34 359.006 873.998 358.414 874.628 357.799L874.808 357.609C881.098 351.271 883.543 342.907 881.518 334.665V334.664C880.379 330.018 879.086 325.424 877.675 321.009C853.985 246.263 792.701 193.439 725.178 189.562L723.471 189.472C668.239 186.993 619.907 180.128 575.72 168.481C522.97 154.579 476.918 133.651 438.844 106.281C348.602 41.4185 253.231 14.2314 163.033 27.6543C162.19 27.7996 161.361 28.0146 160.554 28.2969L159.931 28.4712C159.577 28.487 159.223 28.4828 158.869 28.4585C158.661 28.4478 158.459 28.437 158.262 28.437Z" fill="#F0F0F0"/>
<path d="M279.327 146.056C276.829 143.659 274.274 130.294 271.085 128.937C273.469 134.206 271.738 135.601 271.725 141.383C271.755 144.666 271.372 147.94 270.584 151.128H216.56V108.966C216.559 105.178 217.306 101.426 218.755 97.9264C220.205 94.4264 222.33 91.2462 225.009 88.5674C227.687 85.8886 230.868 83.7637 234.368 82.3141C237.868 80.8644 241.619 80.1183 245.407 80.1184C246.853 80.1466 248.29 80.3569 249.683 80.7444C254.327 81.9981 258.559 84.4508 261.955 87.8565C265.352 91.2623 267.793 95.5012 269.034 100.148C273.152 115.202 279.702 140.26 279.327 146.056Z" fill="#2F2E41"/>
<path d="M219.73 197.923L219.756 165.06L200.439 166.786L207.256 187.513L204.065 239.609C202.518 239.956 201.105 240.746 199.999 241.883C198.892 243.019 198.141 244.453 197.835 246.009C197.53 247.566 197.684 249.177 198.278 250.648C198.873 252.118 199.882 253.384 201.184 254.29C202.485 255.196 204.022 255.705 205.608 255.753C207.193 255.801 208.758 255.386 210.112 254.56C211.466 253.734 212.55 252.532 213.232 251.101C213.915 249.669 214.166 248.07 213.955 246.498L219.73 197.923Z" fill="#FFB6B6"/>
<path d="M257.746 432.76L265.55 432.759L269.263 402.657H257.744L257.746 432.76Z" fill="#FFB6B6"/>
<path d="M255.103 428.91L267.44 428.174V433.459L279.169 441.56C279.748 441.96 280.185 442.535 280.414 443.2C280.644 443.866 280.655 444.587 280.445 445.259C280.236 445.932 279.817 446.519 279.25 446.936C278.683 447.354 277.997 447.579 277.293 447.579H262.605L260.073 442.35L259.085 447.579H253.547L255.103 428.91Z" fill="#2F2E41"/>
<path d="M212.62 432.76L220.425 432.759L224.137 402.657H212.619L212.62 432.76Z" fill="#FFB6B6"/>
<path d="M209.977 428.91L222.315 428.174V433.459L234.044 441.56C234.623 441.96 235.059 442.535 235.289 443.2C235.519 443.866 235.529 444.587 235.32 445.259C235.11 445.932 234.691 446.519 234.124 446.936C233.557 447.354 232.872 447.579 232.168 447.579H217.48L214.948 442.35L213.96 447.579H208.422L209.977 428.91Z" fill="#2F2E41"/>
<path d="M250.796 129.571L234.629 129.888L223.217 141.935L214.067 143.277C209.929 143.884 206.124 145.893 203.288 148.968C200.453 152.044 198.759 155.999 198.49 160.174L200.075 168.88H209.585L215.087 201.183C212.948 206.634 212.802 210.937 217.194 212.627L230.825 238.305L271.085 220.235C273.126 216.725 273.781 213.199 271.694 209.771L274.572 160.321H284.249C284.249 151.072 281.121 143.275 271.93 142.246C268.279 141.851 264.612 141.641 260.94 141.618L250.796 129.571Z" fill="#E6E6E6"/>
<path d="M271.085 220.235C271.085 220.235 231.776 227.209 217.193 212.627C217.193 212.627 215.713 215.14 213.482 219.309C212.841 220.507 211.602 221.319 210.853 222.771C210.173 224.091 208.424 225.713 207.683 227.21C207.087 228.414 208.043 229.987 207.423 231.288C199.955 246.952 191.23 269.047 193.101 283.637C194.307 293.045 196.799 314.938 199.423 338.453C199.628 340.29 197.967 342.65 198.173 344.502C198.367 346.248 200.428 347.485 200.623 349.236C200.752 350.398 199.312 351.583 199.441 352.744C199.582 354.017 201.291 355.266 201.432 356.534C205.026 389.002 208.317 419.315 208.317 419.315H226.704L230.173 350.084L227.338 324.847L233.995 273.809L243.188 322.311L244.371 349.608L254.086 420.583H271.085V351.875L272.353 348.306L271.085 343.728L272.353 338.796L271.085 333.424V220.235Z" fill="#FDCD2F"/>
<path d="M255.759 120.196C253.254 123.523 249.691 125.897 245.657 126.929C241.623 127.96 237.358 127.587 233.564 125.871C229.77 124.154 226.674 121.197 224.785 117.486C222.896 113.775 222.328 109.531 223.173 105.454C224.018 101.376 226.227 97.7084 229.436 95.054C232.644 92.3996 236.661 90.917 240.824 90.8504C244.988 90.7837 249.05 92.137 252.342 94.6874C255.633 97.2378 257.958 100.833 258.934 104.881C258.986 105.101 259.031 105.319 259.074 105.546C259.589 108.084 259.56 110.702 258.989 113.227C258.417 115.752 257.316 118.127 255.759 120.196Z" fill="#FFB6B6"/>
<path d="M251.937 109.739C251.549 107.788 250.565 106.005 249.122 104.636C249.265 106.505 249.005 108.384 248.362 110.145C243.542 110.572 238.7 109.613 234.407 107.381C231.174 105.187 227.059 105.377 222.266 107.381C222.265 105.05 222.724 102.741 223.616 100.587C224.508 98.4331 225.816 96.476 227.465 94.8275C229.113 93.1789 231.07 91.8713 233.224 90.9793C235.378 90.0872 237.687 89.6282 240.018 89.6285H243.188C247.896 89.6294 252.411 91.5 255.74 94.829C259.069 98.1581 260.94 102.673 260.94 107.381C258.015 108.43 255.002 109.22 251.937 109.739Z" fill="#2F2E41"/>
<path d="M113.249 336C141.416 336 164.249 313.167 164.249 285C164.249 256.833 141.416 234 113.249 234C85.0825 234 62.249 256.833 62.249 285C62.249 313.167 85.0825 336 113.249 336Z" fill="#F0F0F0"/>
<path d="M438.249 102C466.416 102 489.249 79.1665 489.249 51C489.249 22.8335 466.416 0 438.249 0C410.083 0 387.249 22.8335 387.249 51C387.249 79.1665 410.083 102 438.249 102Z" fill="#F0F0F0"/>
<path d="M843.249 344C871.416 344 894.249 321.167 894.249 293C894.249 264.833 871.416 242 843.249 242C815.083 242 792.249 264.833 792.249 293C792.249 321.167 815.083 344 843.249 344Z" fill="#F0F0F0"/>
<path d="M530.249 56.5618V172.208C530.249 174.61 529.302 176.915 527.612 178.623C525.923 180.33 523.628 181.302 521.226 181.327C521.192 181.331 521.159 181.332 521.126 181.331H507.666C496.896 181.331 486.568 177.053 478.953 169.438C471.338 161.823 467.059 151.494 467.059 140.725V56.5617C467.059 54.1421 468.021 51.8215 469.732 50.1105C471.442 48.3996 473.763 47.4384 476.183 47.4384H481.637C479.11 54.809 513.402 57.9121 515.285 47.4384H521.126C523.545 47.4384 525.866 48.3996 527.577 50.1106C529.288 51.8215 530.249 54.1421 530.249 56.5618Z" fill="#0C1E22"/>
<path d="M490.306 38.7907C490.307 38.4737 490.433 38.1699 490.657 37.9457C490.881 37.7216 491.185 37.5955 491.502 37.5951H499.632C499.949 37.596 500.252 37.7224 500.475 37.9465C500.699 38.1706 500.824 38.4742 500.824 38.7907C500.824 39.1073 500.699 39.4108 500.475 39.635C500.252 39.8591 499.949 39.9855 499.632 39.9864H491.502C491.185 39.986 490.881 39.86 490.657 39.6358C490.433 39.4117 490.307 39.1077 490.306 38.7907Z" fill="#3F3D56"/>
<path d="M523.919 196H472.503C468.514 195.995 464.689 194.409 461.869 191.588C459.048 188.768 457.461 184.943 457.457 180.954V100.113C457.174 99.91 456.944 99.6429 456.786 99.3335C456.627 99.0242 456.545 98.6815 456.545 98.334V90.2036C456.545 89.8561 456.627 89.5135 456.786 89.2042C456.944 88.8949 457.174 88.6279 457.457 88.4253V86.2431C457.174 86.0405 456.944 85.7734 456.786 85.4642C456.627 85.1549 456.545 84.8123 456.545 84.4648V76.334C456.545 75.9864 456.627 75.6438 456.786 75.3346C456.944 75.0253 457.174 74.7583 457.457 74.5556V70.6118C457.108 70.4246 456.817 70.1461 456.614 69.8062C456.412 69.4663 456.305 69.0778 456.306 68.6821V60.5517C456.305 60.156 456.411 59.7673 456.614 59.4274C456.817 59.0874 457.108 58.8089 457.457 58.6215V47.8149C457.461 43.8258 459.048 40.0014 461.869 37.1808C464.689 34.3601 468.514 32.7735 472.503 32.769H523.919C527.908 32.7735 531.732 34.3602 534.553 37.1808C537.374 40.0015 538.96 43.8259 538.965 47.8149V71.3711C539.236 71.5406 539.459 71.7761 539.614 72.0557C539.769 72.3352 539.85 72.6496 539.851 72.9692V88.4721C539.85 88.7918 539.769 89.1062 539.614 89.3858C539.459 89.6655 539.236 89.9011 538.965 90.0707V180.954C538.96 184.943 537.374 188.767 534.553 191.588C531.732 194.409 527.908 195.995 523.919 196ZM472.503 34.769C469.044 34.7729 465.728 36.1486 463.282 38.5944C460.836 41.0401 459.46 44.3561 459.456 47.8149V60.3228L458.495 60.3599C458.445 60.3616 458.397 60.3825 458.362 60.4182C458.327 60.4539 458.307 60.5017 458.306 60.5518V68.682C458.307 68.732 458.327 68.7797 458.362 68.8154C458.397 68.8511 458.445 68.872 458.495 68.874L459.456 68.9106V75.9599L458.696 76.1474C458.654 76.1575 458.616 76.1814 458.589 76.2151C458.562 76.2488 458.546 76.2906 458.545 76.3339V84.4648C458.546 84.5081 458.562 84.5499 458.589 84.5836C458.616 84.6174 458.654 84.6411 458.696 84.6513L459.456 84.8388V89.8295L458.696 90.017C458.654 90.0272 458.616 90.051 458.589 90.0847C458.562 90.1185 458.546 90.1602 458.545 90.2036V98.3339C458.546 98.3773 458.562 98.4192 458.589 98.453C458.616 98.4868 458.654 98.5107 458.696 98.5209L459.456 98.7084V180.954C459.46 184.413 460.836 187.729 463.282 190.175C465.728 192.62 469.044 193.996 472.503 194H523.919C527.378 193.996 530.694 192.62 533.139 190.174C535.585 187.729 536.961 184.413 536.965 180.954V88.3583H537.851V73.0835H536.965V47.8149C536.961 44.3561 535.585 41.0401 533.139 38.5944C530.694 36.1487 527.378 34.773 523.919 34.769L472.503 34.769Z" fill="#3F3D56"/>
<path d="M504.176 39.9864C504.836 39.9864 505.371 39.4511 505.371 38.7907C505.371 38.1304 504.836 37.5951 504.176 37.5951C503.515 37.5951 502.98 38.1304 502.98 38.7907C502.98 39.4511 503.515 39.9864 504.176 39.9864Z" fill="#3F3D56"/>
<path d="M244.08 270.403H110.293C108.393 270.398 106.572 269.641 105.229 268.298C103.885 266.954 103.128 265.134 103.123 263.234V198.045C103.128 196.145 103.885 194.324 105.228 192.981C106.571 191.637 108.392 190.88 110.292 190.875H244.079C245.979 190.88 247.8 191.637 249.143 192.98C250.487 194.323 251.244 196.144 251.249 198.044V263.233C251.244 265.133 250.487 266.954 249.144 268.297C247.801 269.641 245.98 270.398 244.08 270.403Z" fill="white"/>
<path d="M244.08 270.403H110.293C108.393 270.398 106.572 269.641 105.229 268.298C103.885 266.954 103.128 265.134 103.123 263.234V198.045C103.128 196.145 103.885 194.324 105.228 192.981C106.571 191.637 108.392 190.88 110.292 190.875H244.079C245.979 190.88 247.8 191.637 249.143 192.98C250.487 194.323 251.244 196.144 251.249 198.044V263.233C251.244 265.133 250.487 266.954 249.144 268.297C247.801 269.641 245.98 270.398 244.08 270.403ZM110.293 192.875C108.923 192.879 107.61 193.425 106.641 194.394C105.673 195.363 105.127 196.676 105.123 198.046V263.233C105.127 264.603 105.673 265.916 106.642 266.885C107.611 267.853 108.924 268.399 110.294 268.403H244.078C245.448 268.399 246.761 267.853 247.73 266.884C248.699 265.915 249.245 264.602 249.249 263.232V198.045C249.245 196.675 248.699 195.362 247.73 194.393C246.761 193.425 245.448 192.879 244.078 192.875L110.293 192.875Z" fill="#3F3D56"/>
<path d="M184.357 260.769C157.971 260.769 130.458 260.517 120.193 260.353C118.842 260.325 117.556 259.771 116.609 258.808C115.661 257.844 115.128 256.549 115.123 255.198V201.236C115.124 200.753 115.316 200.289 115.657 199.946C115.999 199.604 116.462 199.411 116.946 199.409H237.422C237.905 199.41 238.369 199.602 238.712 199.943C239.054 200.285 239.247 200.748 239.249 201.232V237.844C239.227 243.82 236.863 249.55 232.664 253.803C228.466 258.057 222.768 260.495 216.792 260.596C207.225 260.72 195.896 260.769 184.357 260.769Z" fill="#0C1E22"/>
<path d="M230.271 234.48H121.411C120.5 234.477 119.611 234.194 118.866 233.669C118.121 233.144 117.556 232.402 117.247 231.544L104.926 196.978C104.688 196.311 104.614 195.597 104.71 194.896C104.806 194.195 105.068 193.527 105.476 192.948C105.883 192.37 106.423 191.897 107.051 191.57C107.679 191.244 108.376 191.073 109.084 191.071L245.156 190.882C245.803 190.881 246.442 191.022 247.028 191.295C247.614 191.569 248.134 191.967 248.549 192.463C248.965 192.958 249.267 193.539 249.434 194.164C249.601 194.789 249.628 195.443 249.515 196.08L249.62 196.124L249.23 197.036L249.226 197.045L234.331 231.8C233.991 232.596 233.425 233.274 232.704 233.751C231.982 234.227 231.135 234.481 230.271 234.48ZM245.162 192.882L109.087 193.071C108.7 193.072 108.318 193.166 107.974 193.345C107.63 193.523 107.334 193.782 107.111 194.099C106.888 194.416 106.744 194.782 106.691 195.166C106.639 195.55 106.68 195.941 106.81 196.307L119.13 230.872C119.3 231.341 119.61 231.748 120.018 232.036C120.426 232.323 120.913 232.478 121.413 232.48H230.271C230.744 232.48 231.207 232.341 231.602 232.081C231.997 231.82 232.307 231.449 232.492 231.013L247.388 196.257C247.546 195.889 247.61 195.487 247.574 195.088C247.538 194.689 247.404 194.305 247.184 193.97C246.963 193.636 246.663 193.361 246.31 193.171C245.957 192.981 245.563 192.882 245.162 192.882Z" fill="#3F3D56"/>
<path d="M176.983 242.004C181.691 242.004 185.507 238.188 185.507 233.48C185.507 228.773 181.691 224.956 176.983 224.956C172.275 224.956 168.459 228.773 168.459 233.48C168.459 238.188 172.275 242.004 176.983 242.004Z" fill="white"/>
<path d="M498.983 168.004C503.691 168.004 507.507 164.188 507.507 159.48C507.507 154.773 503.691 150.956 498.983 150.956C494.275 150.956 490.459 154.773 490.459 159.48C490.459 164.188 494.275 168.004 498.983 168.004Z" fill="white"/>
<path d="M821.379 283.12L798.609 260.64C797.501 259.537 796.185 258.664 794.739 258.07C793.292 257.476 791.743 257.174 790.179 257.18H790.099C788.523 257.185 786.965 257.502 785.512 258.113C784.06 258.724 782.744 259.617 781.639 260.74C776.548 265.893 773.652 272.818 773.561 280.061C773.469 287.304 776.189 294.301 781.149 299.58C781.389 299.84 781.639 300.09 781.889 300.34C783.274 301.717 784.803 302.94 786.449 303.99C790.95 306.898 796.2 308.437 801.559 308.42H801.729C805.408 308.407 809.047 307.666 812.437 306.238C815.827 304.81 818.9 302.723 821.479 300.1C823.713 297.833 824.958 294.772 824.939 291.589C824.92 288.406 823.64 285.361 821.379 283.12ZM820.059 298.69C815.831 302.949 810.265 305.62 804.298 306.254C798.33 306.888 792.327 305.446 787.299 302.17C785.861 301.218 784.518 300.13 783.289 298.92C778.383 294.074 775.602 287.478 775.559 280.583C775.516 273.687 778.214 267.057 783.059 262.15C783.98 261.211 785.078 260.466 786.291 259.956C787.503 259.446 788.804 259.182 790.119 259.18H790.179C791.481 259.175 792.771 259.427 793.975 259.922C795.18 260.416 796.275 261.142 797.199 262.06L819.969 284.55C821.854 286.414 822.922 288.95 822.939 291.601C822.956 294.252 821.92 296.802 820.059 298.69Z" fill="#3F3D56"/>
<path d="M746.669 209.34L723.899 186.85C721.658 184.626 718.626 183.382 715.469 183.39H715.399C713.822 183.396 712.261 183.715 710.807 184.328C709.353 184.94 708.035 185.835 706.929 186.96C702.72 191.235 699.991 196.745 699.142 202.684C698.292 208.622 699.367 214.677 702.209 219.96L702.219 219.97C703.392 222.131 704.848 224.125 706.549 225.9C706.739 226.12 706.959 226.34 707.179 226.56C712.408 231.75 719.482 234.656 726.849 234.64H727.029C730.708 234.625 734.348 233.88 737.737 232.451C741.127 231.021 744.2 228.934 746.779 226.31C747.886 225.188 748.762 223.86 749.355 222.4C749.949 220.94 750.249 219.378 750.239 217.802C750.229 216.226 749.908 214.668 749.296 213.216C748.683 211.764 747.791 210.447 746.669 209.34ZM745.349 224.91C742.956 227.345 740.103 229.282 736.957 230.608C733.811 231.935 730.433 232.626 727.019 232.64H726.849C721.721 232.638 716.709 231.12 712.442 228.276C708.175 225.433 704.843 221.392 702.867 216.66C700.891 211.928 700.358 206.718 701.335 201.684C702.312 196.651 704.756 192.018 708.359 188.37C710.223 186.485 712.759 185.417 715.41 185.4C718.062 185.383 720.611 186.419 722.499 188.28L745.269 210.76C747.153 212.627 748.219 215.166 748.234 217.818C748.249 220.471 747.212 223.021 745.349 224.91Z" fill="#3F3D56"/>
<path d="M822.834 290.188L797.731 265.394C796.085 263.772 793.863 262.869 791.552 262.883C789.241 262.898 787.03 263.828 785.404 265.471C783.37 267.525 781.761 269.961 780.669 272.638C779.577 275.315 779.023 278.181 779.039 281.072C779.056 283.963 779.642 286.822 780.764 289.487C781.886 292.151 783.523 294.568 785.58 296.6C787.637 298.632 790.074 300.238 792.752 301.327C795.43 302.416 798.297 302.966 801.188 302.947C804.079 302.927 806.938 302.338 809.601 301.213C812.264 300.088 814.68 298.449 816.709 296.39L822.834 290.188Z" fill="#0C1E22"/>
<path d="M748.129 216.404L723.026 191.61C721.38 189.988 719.157 189.085 716.846 189.099C714.535 189.114 712.324 190.044 710.698 191.686C708.664 193.741 707.056 196.177 705.963 198.854C704.871 201.531 704.318 204.397 704.334 207.288C704.35 210.179 704.936 213.038 706.059 215.703C707.181 218.367 708.817 220.784 710.874 222.816C712.931 224.848 715.368 226.454 718.047 227.543C720.725 228.632 723.591 229.182 726.483 229.163C729.374 229.143 732.232 228.554 734.896 227.429C737.559 226.304 739.974 224.665 742.004 222.605L748.129 216.404Z" fill="#0C1E22"/>
<path d="M795.249 305.63L794.649 307.21C791.829 306.14 789.096 305.067 786.449 303.99C739.569 284.86 717.189 262.47 702.219 219.97L702.209 219.96C701.499 217.96 700.809 215.913 700.139 213.82L701.719 213.31C702.247 215.323 703.02 217.264 704.019 219.09C704.839 221.42 705.683 223.69 706.549 225.9C720.619 261.77 741.369 282.27 781.149 299.58C783.149 300.45 785.199 301.313 787.299 302.17C789.738 303.759 792.425 304.928 795.249 305.63Z" fill="#3F3D56"/>
<path d="M723.482 232.82L722.076 234.243L774.014 285.541L775.42 284.117L723.482 232.82Z" fill="#3F3D56"/>
<path d="M283.765 190.315L283.792 157.452L264.474 159.178L271.292 179.905L246.544 217.419C244.997 217.766 243.584 218.556 242.478 219.692C241.371 220.829 240.62 222.263 240.314 223.819C240.009 225.375 240.163 226.987 240.757 228.457C241.352 229.927 242.361 231.193 243.663 232.099C244.964 233.006 246.501 233.514 248.086 233.562C249.672 233.61 251.237 233.196 252.591 232.37C253.944 231.544 255.029 230.342 255.711 228.91C256.394 227.478 256.645 225.879 256.434 224.307L283.765 190.315Z" fill="#FFB6B6"/>
</g>
<defs>
<clipPath id="clip0_157_2">
<rect width="894.249" height="448.282" fill="white"/>
</clipPath>
</defs>
</svg>
